<mxfile host="www.draw.io" modified="2019-11-09T06:49:43.012Z" agent="Mozilla/5.0 (Windows NT 6.1; Win64; x64) AppleWebKit/537.36 (KHTML, like Gecko) Chrome/72.0.3626.121 Safari/537.36" etag="MhDsySH5DUh0nPXuECM7" version="12.2.3" type="github" pages="1">
  <diagram name="Page-1" id="97916047-d0de-89f5-080d-49f4d83e522f">
    <mxGraphModel dx="1358" dy="921" grid="1" gridSize="10" guides="1" tooltips="1" connect="1" arrows="1" fold="1" page="1" pageScale="1.5" pageWidth="1169" pageHeight="827" background="#ffffff" math="0" shadow="0">
      <root>
        <mxCell id="0"/>
        <mxCell id="1" parent="0"/>
        <mxCell id="waPN-zL2iwQJFOT_Tszx-66" value="" style="edgeStyle=elbowEdgeStyle;orthogonalLoop=1;jettySize=auto;elbow=vertical;html=1;endArrow=block;endFill=1;strokeColor=#666666;strokeWidth=4;fillColor=#f5f5f5;" edge="1" parent="1" source="2" target="waPN-zL2iwQJFOT_Tszx-65">
          <mxGeometry relative="1" as="geometry"/>
        </mxCell>
        <mxCell id="2" value="图表对象树" style="rounded=1;fillColor=#f5f5f5;strokeColor=#666666;shadow=1;fontStyle=1;fontColor=#333333;fontSize=14;" parent="1" vertex="1">
          <mxGeometry x="672" y="50" width="200" height="60" as="geometry"/>
        </mxCell>
        <mxCell id="waPN-zL2iwQJFOT_Tszx-65" value="EtShape 图表对象" style="rounded=1;fillColor=#f5f5f5;strokeColor=#666666;shadow=1;fontStyle=1;fontColor=#333333;fontSize=14;" vertex="1" parent="1">
          <mxGeometry x="672" y="180" width="200" height="60" as="geometry"/>
        </mxCell>
        <mxCell id="waPN-zL2iwQJFOT_Tszx-68" value="" style="edgeStyle=elbowEdgeStyle;orthogonalLoop=1;jettySize=auto;elbow=vertical;html=1;endArrow=block;endFill=1;strokeColor=#666666;strokeWidth=4;fillColor=#f5f5f5;" edge="1" parent="1" source="3" target="waPN-zL2iwQJFOT_Tszx-67">
          <mxGeometry relative="1" as="geometry"/>
        </mxCell>
        <mxCell id="3" value="EtChartLayer 图表层对象" style="rounded=1;fillColor=#f5f5f5;strokeColor=#666666;shadow=1;fontStyle=1;fontColor=#333333;fontSize=14;" parent="1" vertex="1">
          <mxGeometry x="662" y="290" width="220" height="60" as="geometry"/>
        </mxCell>
        <mxCell id="waPN-zL2iwQJFOT_Tszx-70" value="" style="edgeStyle=elbowEdgeStyle;orthogonalLoop=1;jettySize=auto;elbow=vertical;html=1;endArrow=block;endFill=1;strokeColor=#666666;strokeWidth=4;fillColor=#f5f5f5;" edge="1" parent="1" source="waPN-zL2iwQJFOT_Tszx-67" target="waPN-zL2iwQJFOT_Tszx-69">
          <mxGeometry relative="1" as="geometry"/>
        </mxCell>
        <mxCell id="waPN-zL2iwQJFOT_Tszx-72" value="" style="edgeStyle=elbowEdgeStyle;orthogonalLoop=1;jettySize=auto;elbow=vertical;html=1;endArrow=block;endFill=1;strokeColor=#666666;strokeWidth=4;fillColor=#f5f5f5;" edge="1" parent="1" source="waPN-zL2iwQJFOT_Tszx-67" target="waPN-zL2iwQJFOT_Tszx-71">
          <mxGeometry relative="1" as="geometry"/>
        </mxCell>
        <mxCell id="waPN-zL2iwQJFOT_Tszx-74" value="" style="edgeStyle=elbowEdgeStyle;orthogonalLoop=1;jettySize=auto;elbow=vertical;html=1;endArrow=block;endFill=1;strokeColor=#666666;strokeWidth=4;fillColor=#f5f5f5;" edge="1" parent="1" source="waPN-zL2iwQJFOT_Tszx-67" target="waPN-zL2iwQJFOT_Tszx-73">
          <mxGeometry relative="1" as="geometry"/>
        </mxCell>
        <mxCell id="waPN-zL2iwQJFOT_Tszx-67" value="EtChartRoot 根节点" style="rounded=1;fillColor=#f5f5f5;strokeColor=#666666;shadow=1;fontStyle=1;fontColor=#333333;fontSize=14;" vertex="1" parent="1">
          <mxGeometry x="662" y="430" width="220" height="60" as="geometry"/>
        </mxCell>
        <mxCell id="waPN-zL2iwQJFOT_Tszx-73" value="EtChartText 图表标题对象" style="rounded=1;fillColor=#f5f5f5;strokeColor=#666666;shadow=1;fontStyle=1;fontColor=#333333;fontSize=14;" vertex="1" parent="1">
          <mxGeometry x="1008" y="560" width="220" height="60" as="geometry"/>
        </mxCell>
        <mxCell id="waPN-zL2iwQJFOT_Tszx-81" value="" style="edgeStyle=elbowEdgeStyle;orthogonalLoop=1;jettySize=auto;elbow=vertical;html=1;endArrow=block;endFill=1;strokeColor=#666666;strokeWidth=4;fillColor=#f5f5f5;" edge="1" parent="1" source="waPN-zL2iwQJFOT_Tszx-71" target="waPN-zL2iwQJFOT_Tszx-80">
          <mxGeometry relative="1" as="geometry"/>
        </mxCell>
        <mxCell id="waPN-zL2iwQJFOT_Tszx-71" value="EtChartSeriesCollection 系列容器" style="rounded=1;fillColor=#f5f5f5;strokeColor=#666666;shadow=1;fontStyle=1;fontColor=#333333;fontSize=14;" vertex="1" parent="1">
          <mxGeometry x="638" y="570" width="268" height="60" as="geometry"/>
        </mxCell>
        <mxCell id="waPN-zL2iwQJFOT_Tszx-83" value="" style="edgeStyle=elbowEdgeStyle;orthogonalLoop=1;jettySize=auto;elbow=vertical;html=1;endArrow=block;endFill=1;strokeColor=#666666;strokeWidth=4;fillColor=#f5f5f5;" edge="1" parent="1" source="waPN-zL2iwQJFOT_Tszx-80" target="waPN-zL2iwQJFOT_Tszx-82">
          <mxGeometry relative="1" as="geometry"/>
        </mxCell>
        <mxCell id="waPN-zL2iwQJFOT_Tszx-85" value="" style="edgeStyle=elbowEdgeStyle;orthogonalLoop=1;jettySize=auto;elbow=vertical;html=1;endArrow=block;endFill=1;strokeColor=#666666;strokeWidth=4;fillColor=#f5f5f5;" edge="1" parent="1" source="waPN-zL2iwQJFOT_Tszx-80" target="waPN-zL2iwQJFOT_Tszx-84">
          <mxGeometry relative="1" as="geometry"/>
        </mxCell>
        <mxCell id="waPN-zL2iwQJFOT_Tszx-80" value="EtChartSeries 系列对象" style="rounded=1;fillColor=#f5f5f5;strokeColor=#666666;shadow=1;fontStyle=1;fontColor=#333333;fontSize=14;" vertex="1" parent="1">
          <mxGeometry x="830" y="720" width="268" height="60" as="geometry"/>
        </mxCell>
        <mxCell id="waPN-zL2iwQJFOT_Tszx-84" value="EtChartSeries 系列对象" style="rounded=1;fillColor=#f5f5f5;strokeColor=#666666;shadow=1;fontStyle=1;fontColor=#333333;fontSize=14;" vertex="1" parent="1">
          <mxGeometry x="1008" y="880" width="268" height="60" as="geometry"/>
        </mxCell>
        <mxCell id="waPN-zL2iwQJFOT_Tszx-82" value="EtChartSeries 系列对象" style="rounded=1;fillColor=#f5f5f5;strokeColor=#666666;shadow=1;fontStyle=1;fontColor=#333333;fontSize=14;" vertex="1" parent="1">
          <mxGeometry x="650" y="890" width="268" height="60" as="geometry"/>
        </mxCell>
        <mxCell id="waPN-zL2iwQJFOT_Tszx-76" value="" style="edgeStyle=elbowEdgeStyle;orthogonalLoop=1;jettySize=auto;elbow=vertical;html=1;endArrow=block;endFill=1;strokeColor=#666666;strokeWidth=4;fillColor=#f5f5f5;" edge="1" parent="1" source="waPN-zL2iwQJFOT_Tszx-69" target="waPN-zL2iwQJFOT_Tszx-75">
          <mxGeometry relative="1" as="geometry"/>
        </mxCell>
        <mxCell id="waPN-zL2iwQJFOT_Tszx-79" value="" style="edgeStyle=elbowEdgeStyle;orthogonalLoop=1;jettySize=auto;elbow=vertical;html=1;endArrow=block;endFill=1;strokeColor=#666666;strokeWidth=4;fillColor=#f5f5f5;" edge="1" parent="1" source="waPN-zL2iwQJFOT_Tszx-69" target="waPN-zL2iwQJFOT_Tszx-78">
          <mxGeometry relative="1" as="geometry"/>
        </mxCell>
        <mxCell id="waPN-zL2iwQJFOT_Tszx-69" value="EtChartPlot 绘图区对象" style="rounded=1;fillColor=#f5f5f5;strokeColor=#666666;shadow=1;fontStyle=1;fontColor=#333333;fontSize=14;" vertex="1" parent="1">
          <mxGeometry x="290" y="570" width="220" height="60" as="geometry"/>
        </mxCell>
        <mxCell id="waPN-zL2iwQJFOT_Tszx-78" value="EtCoreCharts 图表类型容器" style="rounded=1;fillColor=#f5f5f5;strokeColor=#666666;shadow=1;fontStyle=1;fontColor=#333333;fontSize=14;" vertex="1" parent="1">
          <mxGeometry x="442" y="730" width="220" height="60" as="geometry"/>
        </mxCell>
        <mxCell id="waPN-zL2iwQJFOT_Tszx-75" value="EtChartAxes 坐标轴对象" style="rounded=1;fillColor=#f5f5f5;strokeColor=#666666;shadow=1;fontStyle=1;fontColor=#333333;fontSize=14;" vertex="1" parent="1">
          <mxGeometry x="140" y="730" width="220" height="60" as="geometry"/>
        </mxCell>
        <mxCell id="29" value="" style="edgeStyle=elbowEdgeStyle;elbow=vertical;strokeWidth=4;endArrow=block;endFill=1;fontStyle=1;strokeColor=#666666;fillColor=#f5f5f5;exitX=0.5;exitY=1;exitDx=0;exitDy=0;" parent="1" source="waPN-zL2iwQJFOT_Tszx-65" target="3" edge="1">
          <mxGeometry x="22" y="165.5" width="100" height="100" as="geometry">
            <mxPoint x="22" y="265.5" as="sourcePoint"/>
            <mxPoint x="122" y="165.5" as="targetPoint"/>
          </mxGeometry>
        </mxCell>
      </root>
    </mxGraphModel>
  </diagram>
</mxfile>
